<svg width="1665" height="775" viewBox="0 0 1665 775" fill="none" xmlns="http://www.w3.org/2000/svg">
<path d="M177.405 717.6V717.003C177.405 688.928 162.521 674.89 138.408 665.632C153.293 657.269 165.795 644.127 165.795 620.533V619.935C165.795 587.082 139.599 565.876 97.0304 565.876H0.283203V774.944H99.4118C146.446 774.944 177.405 755.83 177.405 717.6ZM120.25 628.298C120.25 643.829 107.449 650.399 87.2068 650.399H44.9357V606.197H90.1836C109.533 606.197 120.25 613.962 120.25 627.701V628.298ZM131.859 711.925C131.859 727.456 119.654 734.624 99.4118 734.624H44.9357V688.629H97.9234C121.44 688.629 131.859 697.29 131.859 711.328V711.925Z" fill="#F0B90B"/>
<path d="M400.275 774.944V565.876H355.027V694.602L257.386 565.876H215.115V774.944H260.363V642.037L361.278 774.944H400.275Z" fill="#F0B90B"/>
<path d="M627.419 717.6V717.003C627.419 688.928 612.535 674.89 588.422 665.632C603.306 657.269 615.809 644.127 615.809 620.533V619.935C615.809 587.082 589.613 565.876 547.044 565.876H450.297V774.944H549.426C596.46 774.944 627.419 755.83 627.419 717.6ZM570.264 628.298C570.264 643.829 557.463 650.399 537.221 650.399H494.95V606.197H540.197C559.547 606.197 570.264 613.962 570.264 627.701V628.298ZM581.873 711.925C581.873 727.456 569.668 734.624 549.426 734.624H494.95V688.629H547.937C571.454 688.629 581.873 697.29 581.873 711.328V711.925Z" fill="#F0B90B"/>
<path d="M887.768 735.397L864.233 711.679C846.358 728.282 829.972 738.658 804.351 738.658C764.43 738.658 735.532 705.453 735.532 664.541C735.532 623.628 764.43 591.017 804.351 591.017C828.185 591.017 846.06 601.393 862.743 616.809L886.279 589.831C866.318 570.857 843.081 557.516 804.649 557.516C741.49 557.516 697.101 605.84 697.101 665.134C697.101 725.02 742.384 772.159 803.159 772.159C842.187 772.159 866.02 757.928 887.768 735.397Z" fill="#F0B90B"/>
<path d="M1062.43 681.143V768.601H1099.08V561.073H1062.43V647.346H962.927V561.073H926.284V768.601H962.927V681.143H1062.43Z" fill="#F0B90B"/>
<path d="M1260.48 559.591H1226.52L1134.76 768.601H1172.29L1193.74 718.498H1292.36L1313.51 768.601H1352.24L1260.48 559.591ZM1278.95 686.183H1207.15L1242.9 603.172L1278.95 686.183Z" fill="#F0B90B"/>
<path d="M1390.08 561.073V768.601H1426.73V561.073H1390.08Z" fill="#F0B90B"/>
<path d="M1628.23 704.564L1516.52 561.073H1482.55V768.601H1518.6V620.96L1633.6 768.601H1664.28V561.073H1628.23V704.564Z" fill="#F0B90B"/>
<path d="M721.131 64.57L832.455 0L943.779 64.57L902.851 88.4239L832.455 47.7078L762.059 88.4239L721.131 64.57ZM943.779 146.002L902.851 122.148L832.455 162.865L762.059 122.148L721.131 146.002V193.71L791.527 234.426V315.858L832.455 339.712L873.383 315.858V234.426L943.779 193.71V146.002ZM943.779 275.142V227.435L902.851 251.288V298.996L943.779 275.142ZM972.838 292.005L902.442 332.721V380.429L1013.77 315.858V186.718L972.838 210.572V292.005ZM931.91 105.286L972.838 129.14V176.848L1013.77 152.994V105.286L972.838 81.4323L931.91 105.286ZM791.527 349.994V397.702L832.455 421.556L873.383 397.702V349.994L832.455 373.848L791.527 349.994ZM721.131 275.142L762.059 298.996V251.288L721.131 227.435V275.142ZM791.527 105.286L832.455 129.14L873.383 105.286L832.455 81.4323L791.527 105.286ZM692.072 129.14L732.999 105.286L692.072 81.4323L651.144 105.286V152.994L692.072 176.848V129.14ZM692.072 210.572L651.144 186.718V315.858L762.467 380.429V332.721L692.072 292.005V210.572Z" fill="#F0B90B"/>
</svg>
